REM DIRINDEX 1\2\5,1\2\6,1\2\7,1\2\8,1\3\9,1\3\10,1\3\11,1\4\12,1\4\13,1\4\14,1\4\15,1\4\16
REM DIRNAME cjc034,folder01,folder02,folder03,folder04,folder05,folder06,folder07,folder08,folder09,folder10,folder11,folder12,folder13,folder14,folder15
TITLE ""
FILE "1200_sec03_0792_0800.mp3" MP3
  TRACK 01 AUDIO
    TITLE "0:"
    INDEX 01 00:00:00
  TRACK 02 AUDIO
    TITLE "12:cjc034_06834"
    INDEX 01 00:00:17
  TRACK 03 AUDIO
    TITLE "0:"
    INDEX 01 00:01:17
  TRACK 04 AUDIO
    TITLE "13:cjc034_06835"
    INDEX 01 00:01:62
  TRACK 05 AUDIO
    TITLE "0:"
    INDEX 01 00:02:73
  TRACK 06 AUDIO
    TITLE "14:cjc034_06836"
    INDEX 01 00:03:29
  TRACK 07 AUDIO
    TITLE "0:"
    INDEX 01 00:04:29
  TRACK 08 AUDIO
    TITLE "15:cjc034_06837"
    INDEX 01 00:04:74
  TRACK 09 AUDIO
    TITLE "0:"
    INDEX 01 00:08:36
  TRACK 10 AUDIO
    TITLE "12:cjc034_06838"
    INDEX 01 00:09:73
  TRACK 11 AUDIO
    TITLE "0:"
    INDEX 01 00:11:07
  TRACK 12 AUDIO
    TITLE "13:cjc034_06839"
    INDEX 01 00:11:42
  TRACK 13 AUDIO
    TITLE "0:"
    INDEX 01 00:14:17
  TRACK 14 AUDIO
    TITLE "14:cjc034_06840"
    INDEX 01 00:14:49
  TRACK 15 AUDIO
    TITLE "0:"
    INDEX 01 00:15:58
  TRACK 16 AUDIO
    TITLE "15:cjc034_06841"
    INDEX 01 00:16:18
  TRACK 17 AUDIO
    TITLE "0:"
    INDEX 01 00:19:71
  TRACK 18 AUDIO
    TITLE "12:cjc034_06842"
    INDEX 01 00:21:29
  TRACK 19 AUDIO
    TITLE "0:"
    INDEX 01 00:22:44
  TRACK 20 AUDIO
    TITLE "13:cjc034_06843"
    INDEX 01 00:23:04
  TRACK 21 AUDIO
    TITLE "0:"
    INDEX 01 00:24:14
  TRACK 22 AUDIO
    TITLE "14:cjc034_06844"
    INDEX 01 00:24:49
  TRACK 23 AUDIO
    TITLE "0:"
    INDEX 01 00:25:64
  TRACK 24 AUDIO
    TITLE "15:cjc034_06845"
    INDEX 01 00:26:24
  TRACK 25 AUDIO
    TITLE "0:"
    INDEX 01 00:30:44
  TRACK 26 AUDIO
    TITLE "12:cjc034_06846"
    INDEX 01 00:32:03
  TRACK 27 AUDIO
    TITLE "0:"
    INDEX 01 00:33:26
  TRACK 28 AUDIO
    TITLE "13:cjc034_06847"
    INDEX 01 00:33:64
  TRACK 29 AUDIO
    TITLE "0:"
    INDEX 01 00:37:42
  TRACK 30 AUDIO
    TITLE "14:cjc034_06848"
    INDEX 01 00:38:00
  TRACK 31 AUDIO
    TITLE "0:"
    INDEX 01 00:39:23
  TRACK 32 AUDIO
    TITLE "15:cjc034_06849"
    INDEX 01 00:39:58
  TRACK 33 AUDIO
    TITLE "0:"
    INDEX 01 00:44:20
  TRACK 34 AUDIO
    TITLE "12:cjc034_06850"
    INDEX 01 00:45:59
  TRACK 35 AUDIO
    TITLE "0:"
    INDEX 01 00:47:27
  TRACK 36 AUDIO
    TITLE "13:cjc034_06851"
    INDEX 01 00:47:60
  TRACK 37 AUDIO
    TITLE "0:"
    INDEX 01 00:49:04
  TRACK 38 AUDIO
    TITLE "14:cjc034_06852"
    INDEX 01 00:49:41
  TRACK 39 AUDIO
    TITLE "0:"
    INDEX 01 00:51:07
  TRACK 40 AUDIO
    TITLE "15:cjc034_06853"
    INDEX 01 00:51:42
  TRACK 41 AUDIO
    TITLE "0:"
    INDEX 01 00:55:42
  TRACK 42 AUDIO
    TITLE "12:cjc034_06854"
    INDEX 01 00:57:05
  TRACK 43 AUDIO
    TITLE "0:"
    INDEX 01 00:58:11
  TRACK 44 AUDIO
    TITLE "13:cjc034_06855"
    INDEX 01 00:58:48
  TRACK 45 AUDIO
    TITLE "0:"
    INDEX 01 01:02:16
  TRACK 46 AUDIO
    TITLE "14:cjc034_06856"
    INDEX 01 01:02:50
  TRACK 47 AUDIO
    TITLE "0:"
    INDEX 01 01:03:57
  TRACK 48 AUDIO
    TITLE "15:cjc034_06857"
    INDEX 01 01:04:19
  TRACK 49 AUDIO
    TITLE "0:"
    INDEX 01 01:08:05
  TRACK 50 AUDIO
    TITLE "12:cjc034_06858"
    INDEX 01 01:09:38
  TRACK 51 AUDIO
    TITLE "0:"
    INDEX 01 01:10:65
  TRACK 52 AUDIO
    TITLE "13:cjc034_06859"
    INDEX 01 01:11:25
  TRACK 53 AUDIO
    TITLE "0:"
    INDEX 01 01:12:42
  TRACK 54 AUDIO
    TITLE "14:cjc034_06860"
    INDEX 01 01:13:00
  TRACK 55 AUDIO
    TITLE "0:"
    INDEX 01 01:14:27
  TRACK 56 AUDIO
    TITLE "15:cjc034_06861"
    INDEX 01 01:14:63
  TRACK 57 AUDIO
    TITLE "0:"
    INDEX 01 01:18:66
  TRACK 58 AUDIO
    TITLE "12:cjc034_06862"
    INDEX 01 01:20:30
  TRACK 59 AUDIO
    TITLE "0:"
    INDEX 01 01:21:65
  TRACK 60 AUDIO
    TITLE "13:cjc034_06863"
    INDEX 01 01:22:25
  TRACK 61 AUDIO
    TITLE "0:"
    INDEX 01 01:23:28
  TRACK 62 AUDIO
    TITLE "14:cjc034_06864"
    INDEX 01 01:23:62
  TRACK 63 AUDIO
    TITLE "0:"
    INDEX 01 01:25:23
  TRACK 64 AUDIO
    TITLE "15:cjc034_06865"
    INDEX 01 01:25:57
  TRACK 65 AUDIO
    TITLE "0:"
    INDEX 01 01:29:09
  TRACK 66 AUDIO
    TITLE "12:cjc034_06866"
    INDEX 01 01:30:44
  TRACK 67 AUDIO
    TITLE "0:"
    INDEX 01 01:31:45
  TRACK 68 AUDIO
    TITLE "13:cjc034_06867"
    INDEX 01 01:32:10
  TRACK 69 AUDIO
    TITLE "0:"
    INDEX 01 01:34:22
  TRACK 70 AUDIO
    TITLE "14:cjc034_06868"
    INDEX 01 01:34:55
  TRACK 71 AUDIO
    TITLE "0:"
    INDEX 01 01:35:57
  TRACK 72 AUDIO
    TITLE "15:cjc034_06869"
    INDEX 01 01:36:23
  TRACK 73 AUDIO
    TITLE "0:"
    INDEX 01 01:39:43
